<?xml version="1.0" encoding="iso-8859-1"?>
<!-- Generator: Adobe Illustrator 18.1.1, SVG Export Plug-In . SVG Version: 6.00 Build 0)  -->
<svg version="1.1" id="Capa_1" xmlns="http://www.w3.org/2000/svg" xmlns:xlink="http://www.w3.org/1999/xlink" x="0px" y="0px"
	 viewBox="0 0 612 612" style="enable-background:new 0 0 612 612;" xml:space="preserve">
<g>
	<g>
		<path fill="#FFFFFF" d="M496.995,215.233c38.763,0,70.186-31.423,70.186-70.185s-31.423-70.185-70.186-70.185
			c-38.757,0-70.18,31.423-70.18,70.185S458.238,215.233,496.995,215.233z"/>
		<path fill="#FFFFFF" d="M610.015,231.67c-1.397-1.497-3.353-2.348-5.402-2.348h-153.52l-14.004,200.12c-0.183,2.62-0.732,5.129-1.555,7.504
			v132.292c0,4.08,3.307,7.387,7.387,7.387h108.149c4.08,0,7.387-3.307,7.387-7.387V432.656h32.959c3.88,0,7.097-3,7.368-6.87
			l13.196-188.561C612.125,235.18,611.414,233.169,610.015,231.67z"/>
		<circle fill="#FFFFFF"  cx="115.001" cy="145.048" r="70.185"/>
		<path fill="#FFFFFF" d="M160.904,229.321H7.387c-2.049,0-4.004,0.852-5.402,2.348c-1.399,1.5-2.11,3.511-1.967,5.553l13.194,188.561
			c0.271,3.87,3.489,6.87,7.368,6.87H53.54v136.581c0,4.08,3.307,7.387,7.387,7.387h108.152c4.08,0,7.387-3.307,7.387-7.387V436.953
			c-0.825-2.377-1.375-4.891-1.558-7.514L160.904,229.321z"/>
		<circle fill="#FFFFFF"  cx="305.998" cy="110.653" r="75.875"/>
		<path fill="#FFFFFF" d="M428.182,204.3c-1.511-1.618-3.626-2.539-5.84-2.539H189.657c-2.214,0-4.329,0.921-5.84,2.539
			c-1.509,1.62-2.279,3.795-2.126,6.004l14.265,203.847c0.284,4.044,3.55,7.182,7.555,7.389l36.044,0.021v147.675
			c0,4.41,3.577,7.987,7.987,7.987H364.46c4.41,0,7.985-3.577,7.985-7.987V421.56l36.044-0.021c4.004-0.208,7.271-3.347,7.555-7.389
			l14.265-203.847C430.461,208.096,429.691,205.921,428.182,204.3z"/>
	</g>
</g>
</svg>
