<?xml version="1.0" encoding="iso-8859-1"?>
<!-- Generator: Adobe Illustrator 16.0.0, SVG Export Plug-In . SVG Version: 6.00 Build 0)  -->
<!DOCTYPE svg PUBLIC "-//W3C//DTD SVG 1.1//EN" "http://www.w3.org/Graphics/SVG/1.1/DTD/svg11.dtd">
<svg version="1.1" id="Capa_1" xmlns="http://www.w3.org/2000/svg" xmlns:xlink="http://www.w3.org/1999/xlink" x="0px" y="0px"
	 width="101.623px" height="101.623px" viewBox="0 0 101.623 101.623" style="enable-background:new 0 0 101.623 101.623;"
	 xml:space="preserve">
<g>
	<g>
		<path fill="#FFFFFF" d="M81.09,17.089c-10.917-10.917-28.681-10.917-39.598,0c-9.957,9.957-10.828,25.605-2.624,36.564l-4.854,4.854
			c-2.303-0.465-4.787,0.191-6.572,1.978l-20.86,20.86c-2.831,2.831-2.831,7.422,0,10.253s7.422,2.831,10.253,0l20.859-20.859
			c1.786-1.784,2.442-4.27,1.977-6.571l4.854-4.854c10.959,8.205,26.607,7.333,36.564-2.624
			C92.007,45.771,92.007,28.006,81.09,17.089z M47.149,51.031c-7.798-7.799-7.798-20.486,0-28.284
			c7.798-7.798,20.486-7.799,28.285,0c7.799,7.798,7.797,20.486,0,28.284C67.635,58.829,54.948,58.829,47.149,51.031z"/>
		<path fill="#FFFFFF" d="M7.123,5.978H28v-4H7.123C3.195,1.978,0,5.172,0,9.102v20.877h4V9.102C3.999,7.378,5.401,5.978,7.123,5.978z"/>
		<path fill="#FFFFFF" d="M97.623,71.645v20.877c0,1.724-1.4,3.124-3.123,3.124H73.623v4H94.5c3.928,0,7.123-3.195,7.123-7.124V71.645H97.623z"/>
	</g>
</g>
</svg>
